<?xml version="1.0" standalone="no"?>
<!DOCTYPE svg PUBLIC "-//W3C//DTD SVG 20010904//EN"
 "http://www.w3.org/TR/2001/REC-SVG-20010904/DTD/svg10.dtd">
<svg version="1.0" xmlns="http://www.w3.org/2000/svg"
 width="500.000000pt" height="500.000000pt" viewBox="0 0 500.000000 500.000000"
 preserveAspectRatio="xMidYMid meet">
<metadata>
Created by potrace 1.14, written by Peter Selinger 2001-2017
</metadata>
<g transform="translate(0.000000,500.000000) scale(0.100000,-0.100000)"
fill="#000000" stroke="none">
<path d="M0 2500 l0 -2500 2500 0 2500 0 0 2500 0 2500 -2500 0 -2500 0 0
-2500z m2078 378 l3 -158 114 0 114 0 3 158 3 157 38 3 37 3 0 -176 c0 -173 0
-176 -25 -200 -23 -24 -29 -25 -168 -25 -131 0 -147 2 -171 21 l-26 20 0 180
0 180 38 -3 37 -3 3 -157z m747 117 l0 -40 -77 -3 -78 -3 0 -154 0 -155 -40 0
-40 0 0 155 0 155 -80 0 -80 0 0 45 0 45 198 -2 197 -3 0 -40z m411 12 c20
-23 24 -39 24 -93 0 -56 -4 -68 -25 -89 -19 -20 -34 -25 -77 -25 l-52 0 39
-40 c32 -33 46 -40 77 -40 38 0 38 0 38 -40 l0 -40 -58 0 -57 0 -80 80 c-44
44 -88 80 -97 80 -16 0 -18 -10 -18 -80 l0 -80 -45 0 -45 0 0 193 c0 107 3
197 7 201 4 4 83 6 176 4 l169 -3 24 -28z m459 -12 l0 -40 -157 -3 -158 -3 0
-34 0 -34 158 -3 157 -3 3 -37 3 -38 -160 0 -161 0 0 -40 0 -40 160 0 160 0 0
-40 0 -40 -175 0 c-173 0 -176 0 -200 25 -24 23 -25 28 -25 173 0 141 1 150
23 169 33 31 40 32 212 30 l160 -2 0 -40z m430 0 l0 -40 -157 -3 -158 -3 0
-34 0 -35 160 0 160 0 0 -40 0 -40 -160 0 -160 0 0 -80 0 -80 -40 0 -40 0 0
168 c0 179 6 203 54 222 11 5 93 8 181 7 l160 -2 0 -40z m-2770 -61 c75 -19
136 -54 201 -116 95 -90 139 -206 132 -349 -4 -76 -9 -97 -41 -161 -97 -197
-313 -297 -522 -242 -74 19 -135 54 -197 112 -76 71 -142 204 -115 231 12 12
186 15 203 3 5 -4 20 -23 32 -43 36 -59 96 -93 174 -97 86 -5 131 10 184 63
118 118 74 326 -80 385 -90 34 -220 -6 -272 -83 -16 -23 -33 -45 -39 -49 -16
-12 -190 -9 -202 3 -14 14 5 81 40 142 54 91 177 181 284 206 60 14 154 12
218 -5z m-70 -338 c35 -15 65 -59 65 -96 0 -62 -65 -117 -125 -106 -40 8 -82
47 -90 86 -9 40 19 95 58 114 40 19 49 20 92 2z m1051 -246 c43 -17 53 -39 54
-114 0 -58 -4 -74 -22 -93 -20 -22 -28 -23 -155 -23 l-133 0 0 -80 0 -80 -40
0 -40 0 0 200 0 200 154 0 c85 0 167 -5 182 -10z m489 -35 l0 -40 -157 -3
-158 -3 0 -34 0 -35 160 0 160 0 0 -40 0 -40 -160 0 -160 0 0 -40 0 -40 160 0
160 0 0 -40 0 -40 -175 0 -176 0 -24 26 c-24 26 -25 32 -25 168 0 151 7 177
54 196 11 5 93 8 181 7 l160 -2 0 -40z m411 12 c23 -27 24 -34 24 -173 0 -141
-1 -146 -25 -169 -24 -25 -27 -25 -200 -25 l-175 0 0 193 c0 107 3 197 7 201
4 4 83 6 176 4 l169 -3 24 -28z m459 -12 l0 -40 -77 -3 -78 -3 0 -114 0 -115
80 0 80 0 0 -40 0 -40 -200 0 -200 0 0 40 0 40 80 0 80 0 0 115 0 115 -80 0
-80 0 0 45 0 45 198 -2 197 -3 0 -40z m411 12 c23 -27 24 -33 24 -198 l0 -169
-40 0 -39 0 -3 78 -3 77 -117 3 -118 3 0 -81 0 -80 -40 0 -40 0 0 168 c0 234
-1 233 213 229 138 -2 139 -2 163 -30z"/>
<path d="M2950 2915 l0 -35 115 0 115 0 0 35 0 35 -115 0 -115 0 0 -35z"/>
<path d="M2080 2235 l0 -35 115 0 115 0 0 35 0 35 -115 0 -115 0 0 -35z"/>
<path d="M2950 2155 l0 -115 115 0 115 0 0 115 0 115 -115 0 -115 0 0 -115z"/>
<path d="M3810 2235 l0 -35 120 0 120 0 0 35 0 35 -120 0 -120 0 0 -35z"/>
</g>
</svg>
